<svg width="192" height="192" viewBox="0 0 192 192" xmlns="http://www.w3.org/2000/svg">
    <defs>
        <linearGradient id="grad3" x1="0%" y1="0%" x2="0%" y2="100%">
            <stop offset="0%" style="stop-color:#1e40af;stop-opacity:1" />
            <stop offset="100%" style="stop-color:#0284c7;stop-opacity:1" />
        </linearGradient>
    </defs>
    <rect width="192" height="192" rx="42" fill="url(#grad3)"/>
    
    <!-- Calendario -->
    <rect x="36" y="50" width="120" height="100" rx="8" fill="white"/>
    <rect x="36" y="50" width="120" height="25" rx="8" fill="#1e40af"/>
    <circle cx="60" cy="45" r="4" fill="#94a3b8"/>
    <circle cx="132" cy="45" r="4" fill="#94a3b8"/>
    
    <!-- Griglia calendario -->
    <line x1="56" y1="90" x2="136" y2="90" stroke="#e5e7eb" stroke-width="2"/>
    <line x1="56" y1="110" x2="136" y2="110" stroke="#e5e7eb" stroke-width="2"/>
    <line x1="76" y1="75" x2="76" y2="140" stroke="#e5e7eb" stroke-width="2"/>
    <line x1="96" y1="75" x2="96" y2="140" stroke="#e5e7eb" stroke-width="2"/>
    <line x1="116" y1="75" x2="116" y2="140" stroke="#e5e7eb" stroke-width="2"/>
    
    <!-- Orologio -->
    <circle cx="135" cy="135" r="35" fill="#10b981"/>
    <circle cx="135" cy="135" r="28" fill="white"/>
    <line x1="135" y1="135" x2="135" y2="118" stroke="#10b981" stroke-width="3" stroke-linecap="round"/>
    <line x1="135" y1="135" x2="147" y2="135" stroke="#10b981" stroke-width="3" stroke-linecap="round"/>
    <circle cx="135" cy="135" r="3" fill="#10b981"/>
</svg>
