<svg width="512" height="512" viewBox="0 0 512 512" xmlns="http://www.w3.org/2000/svg">
    <defs>
        <linearGradient id="grad3" x1="0%" y1="0%" x2="0%" y2="100%">
            <stop offset="0%" style="stop-color:#1e40af;stop-opacity:1" />
            <stop offset="100%" style="stop-color:#0284c7;stop-opacity:1" />
        </linearGradient>
    </defs>
    <rect width="512" height="512" rx="112" fill="url(#grad3)"/>
    
    <!-- Calendario -->
    <rect x="96" y="133" width="320" height="267" rx="20" fill="white"/>
    <rect x="96" y="133" width="320" height="67" rx="20" fill="#1e40af"/>
    <circle cx="160" cy="120" r="11" fill="#94a3b8"/>
    <circle cx="352" cy="120" r="11" fill="#94a3b8"/>
    
    <!-- Griglia calendario -->
    <line x1="149" y1="240" x2="363" y2="240" stroke="#e5e7eb" stroke-width="5"/>
    <line x1="149" y1="293" x2="363" y2="293" stroke="#e5e7eb" stroke-width="5"/>
    <line x1="203" y1="200" x2="203" y2="373" stroke="#e5e7eb" stroke-width="5"/>
    <line x1="256" y1="200" x2="256" y2="373" stroke="#e5e7eb" stroke-width="5"/>
    <line x1="309" y1="200" x2="309" y2="373" stroke="#e5e7eb" stroke-width="5"/>
    
    <!-- Orologio -->
    <circle cx="360" cy="360" r="93" fill="#10b981"/>
    <circle cx="360" cy="360" r="75" fill="white"/>
    <line x1="360" y1="360" x2="360" y2="315" stroke="#10b981" stroke-width="8" stroke-linecap="round"/>
    <line x1="360" y1="360" x2="392" y2="360" stroke="#10b981" stroke-width="8" stroke-linecap="round"/>
    <circle cx="360" cy="360" r="8" fill="#10b981"/>
</svg>
